<svg width="250" height="205" viewBox="0 0 250 205" fill="none" xmlns="http://www.w3.org/2000/svg">
<path d="M249.884 89.6767C249.537 88.3156 248.443 87.2711 247.07 86.9823L245.39 86.6323V63.1296L248.132 60.7851C249.215 59.8629 249.668 58.3962 249.295 57.024C248.923 55.6518 247.793 54.6157 246.393 54.3629L230.99 51.5685L230.995 31.7797L230.99 31.3713L233.826 28.9491C234.907 28.0241 235.362 26.5575 234.99 25.188C234.618 23.813 233.487 22.7769 232.087 22.5241L107.596 0.0603111C106.629 -0.117466 105.638 0.101978 104.835 0.663087L8.37115 67.9379C6.54893 68.949 -0.123266 73.5295 0.00173321 86.26C0.143399 100.085 8.32393 106.363 8.67393 106.624C8.72115 106.66 8.77393 106.682 8.82393 106.716C8.90726 106.774 8.99059 106.827 9.0767 106.877C9.16837 106.929 9.26282 106.974 9.36004 107.018C9.44615 107.06 9.53226 107.096 9.6267 107.129C9.73226 107.168 9.83781 107.196 9.94615 107.224C10.0073 107.243 10.0656 107.268 10.1267 107.282L15.8239 108.477C14.8989 110.991 14.2711 114.141 14.3128 118.099C14.3822 124.949 16.4239 129.943 18.51 133.274L14.0961 136.349C12.2628 137.371 5.60172 141.96 5.73227 154.671C5.87116 168.496 14.0489 174.788 14.4072 175.035C14.7156 175.246 15.3322 175.571 15.8545 175.69L146.449 203.093C146.462 203.096 146.476 203.101 146.49 203.104L151.154 204.082C151.404 204.135 151.66 204.16 151.91 204.16C152.776 204.16 153.626 203.851 154.298 203.279L240.129 129.963C241.198 129.049 241.654 127.607 241.307 126.249C240.957 124.888 239.865 123.843 238.49 123.554L236.957 123.235V103.427L248.704 93.3933C249.776 92.4767 250.234 91.035 249.884 89.6767ZM145.601 103.152C146.471 103.152 147.321 102.843 147.993 102.268L223.67 37.6269V61.0323L144.921 128.01V103.079C145.151 103.121 145.376 103.152 145.601 103.152ZM14.0711 75.6323L137.543 101.541V126.457L14.0711 100.602V75.6323ZM19.8017 168.985V144.035L143.271 169.949V194.899L19.8017 168.985ZM28.4405 132.443V111.124L140.721 134.682C140.735 134.685 140.746 134.69 140.76 134.693L145.424 135.671C145.676 135.724 145.929 135.749 146.179 135.749C147.046 135.749 147.898 135.44 148.571 134.868L150.612 133.121L151.846 133.379V158.321L28.4405 132.443ZM229.59 129.274L150.676 196.454L150.651 171.49C150.876 171.535 151.104 171.56 151.332 171.56C152.198 171.56 153.048 171.254 153.721 170.679L157.885 167.124L159.726 167.51C159.976 167.563 160.232 167.588 160.479 167.588C161.348 167.588 162.198 167.279 162.871 166.707L229.59 109.691V129.274ZM238.157 92.7156L159.254 159.874L159.226 134.921C159.454 134.963 159.679 134.99 159.904 134.99C160.773 134.99 161.623 134.682 162.296 134.11L238.168 69.299L238.157 92.7156Z" fill="black"/>
</svg>
